<svg width="97" height="97" xmlns="http://www.w3.org/2000/svg" xmlns:xlink="http://www.w3.org/1999/xlink" xml:space="preserve" overflow="hidden"><g transform="translate(-432 -320)"><g><g><g><g><path d="M453 335 447 335 447 403 515 403 515 397 453 397 453 335Z" fill="#ED6C1D" fill-rule="nonzero" fill-opacity="1"/><path d="M467 388C467 390.209 465.209 392 463 392 460.791 392 459 390.209 459 388 459 385.791 460.791 384 463 384 465.209 384 467 385.791 467 388Z" fill="#ED6C1D" fill-rule="nonzero" fill-opacity="1"/><path d="M471 375C471 377.209 469.209 379 467 379 464.791 379 463 377.209 463 375 463 372.791 464.791 371 467 371 469.209 371 471 372.791 471 375Z" fill="#ED6C1D" fill-rule="nonzero" fill-opacity="1"/><path d="M485 377C485 379.209 483.209 381 481 381 478.791 381 477 379.209 477 377 477 374.791 478.791 373 481 373 483.209 373 485 374.791 485 377Z" fill="#ED6C1D" fill-rule="nonzero" fill-opacity="1"/><path d="M485 363C485 365.209 483.209 367 481 367 478.791 367 477 365.209 477 363 477 360.791 478.791 359 481 359 483.209 359 485 360.791 485 363Z" fill="#ED6C1D" fill-rule="nonzero" fill-opacity="1"/><path d="M498 359C498 361.209 496.209 363 494 363 491.791 363 490 361.209 490 359 490 356.791 491.791 355 494 355 496.209 355 498 356.791 498 359Z" fill="#ED6C1D" fill-rule="nonzero" fill-opacity="1"/><path d="M512 359C512 361.209 510.209 363 508 363 505.791 363 504 361.209 504 359 504 356.791 505.791 355 508 355 510.209 355 512 356.791 512 359Z" fill="#ED6C1D" fill-rule="nonzero" fill-opacity="1"/><path d="M512 344C512 346.209 510.209 348 508 348 505.791 348 504 346.209 504 344 504 341.791 505.791 340 508 340 510.209 340 512 341.791 512 344Z" fill="#ED6C1D" fill-rule="nonzero" fill-opacity="1"/></g></g></g></g></g></svg>