<svg width="96" height="96" xmlns="http://www.w3.org/2000/svg" xmlns:xlink="http://www.w3.org/1999/xlink"
     xml:space="preserve" overflow="hidden"><g transform="translate(-592 -312)"><g><path d="M617 360C617 358.343 618.343 357 620 357L652.76 357 643.88 348.12C642.75 346.908 642.818 345.009 644.03 343.88 645.182 342.806 646.968 342.806 648.12 343.88L662.12 357.88C663.29 359.051 663.29 360.949 662.12 362.12L648.12 376.12C646.908 377.25 645.01 377.182 643.88 375.97 642.806 374.818 642.806 373.032 643.88 371.88L652.76 363 620 363C618.343 363 617 361.657 617 360Z" fill="#ED6C1D" fill-rule="nonzero" fill-opacity="1"/><path
        d="M678 360C678 339.013 660.987 322 640 322 619.013 322 602 339.013 602 360 602 380.987 619.013 398 640 398 660.987 398 678 380.987 678 360ZM672 360C672 377.673 657.673 392 640 392 622.327 392 608 377.673 608 360 608 342.327 622.327 328 640 328 657.673 328 672 342.327 672 360Z"
        fill="#ED6C1D" fill-rule="nonzero" fill-opacity="1"/></g></g></svg>