<svg width="96" height="76" xmlns="http://www.w3.org/2000/svg" xmlns:xlink="http://www.w3.org/1999/xlink" xml:space="preserve" overflow="hidden"><g transform="translate(-608 -328)"><g><g><g><g><path d="M50 7.8125C50.863 7.8125 51.5625 8.51203 51.5625 9.375L51.5625 64.9781 38.6047 52.0203 37.5 50.9156 36.3953 52.0203 23.4375 64.9781 23.4375 9.375C23.4375 8.51203 24.137 7.8125 25 7.8125L50 7.8125M50 6.25 25 6.25C23.2763 6.25515 21.8802 7.65125 21.875 9.375L21.875 68.75 37.5 53.125 53.125 68.75 53.125 9.375C53.1198 7.65125 51.7237 6.25515 50 6.25Z" stroke="#E97131" stroke-width="3.125" stroke-linecap="butt" stroke-linejoin="miter" stroke-miterlimit="4" stroke-opacity="1" fill="#E97131" fill-rule="nonzero" fill-opacity="1" transform="matrix(1.28 0 0 1 608 328)"/></g></g></g></g></g></svg>